<svg width="17" height="7" viewBox="0 0 17 7" fill="none" xmlns="http://www.w3.org/2000/svg">
<path d="M4.592 0.4H5.696V6.28L1.712 2.528V6H0.608V0.12L4.592 3.872V0.4ZM8.55269 6.08C8.15269 6.08 7.80335 6 7.50469 5.84C7.20602 5.68 6.97402 5.45867 6.80869 5.176C6.64869 4.888 6.56869 4.54933 6.56869 4.16C6.56869 3.76533 6.64869 3.42667 6.80869 3.144C6.97402 2.856 7.20602 2.63467 7.50469 2.48C7.80335 2.32 8.15535 2.24 8.56069 2.24C8.96602 2.24 9.31002 2.31467 9.59269 2.464C9.88069 2.608 10.0994 2.82133 10.2487 3.104C10.398 3.38133 10.4727 3.71733 10.4727 4.112C10.4727 4.16 10.47 4.21067 10.4647 4.264C10.4647 4.31733 10.462 4.36 10.4567 4.392H7.16069V3.752H9.55269L9.27269 4.12C9.29402 4.088 9.31269 4.04533 9.32869 3.992C9.35002 3.93333 9.36069 3.88533 9.36069 3.848C9.36069 3.66667 9.32602 3.512 9.25669 3.384C9.19269 3.256 9.09935 3.15467 8.97669 3.08C8.85402 3.00533 8.71002 2.968 8.54469 2.968C8.34202 2.968 8.17135 3.01333 8.03269 3.104C7.89935 3.18933 7.79535 3.32 7.72069 3.496C7.65135 3.66667 7.61402 3.88 7.60869 4.136C7.60869 4.38133 7.64335 4.58933 7.71269 4.76C7.78735 4.93067 7.89669 5.06133 8.04069 5.152C8.18469 5.24267 8.35802 5.288 8.56069 5.288C8.79002 5.288 8.98469 5.24533 9.14469 5.16C9.31002 5.06933 9.44602 4.936 9.55269 4.76L10.4567 5.04C10.2647 5.38667 10.0087 5.648 9.68869 5.824C9.37402 5.99467 8.99535 6.08 8.55269 6.08ZM10.593 2.32H11.697L12.505 4.36L13.545 2.04L14.625 4.368L15.441 2.32H16.537L14.737 6.248L13.553 3.904L12.401 6.248L10.593 2.32Z" fill="#202244"/>
</svg>
