<svg width="13" height="9" viewBox="0 0 13 9" fill="none" xmlns="http://www.w3.org/2000/svg">
<path fill-rule="evenodd" clip-rule="evenodd" d="M6.72551 0.29272L8.08954 2.40017C8.18999 2.55283 8.38109 2.65978 8.60342 2.68522L11.6641 3.02774C11.8429 3.048 12.0058 3.11962 12.1136 3.22987C12.2239 3.34059 12.2692 3.47863 12.2429 3.6148C12.2214 3.72693 12.1516 3.832 12.0469 3.91115L9.82841 5.56394C9.6661 5.68173 9.59199 5.85087 9.62996 6.01813L10.1781 8.34467C10.2376 8.62265 9.99624 8.88555 9.62996 8.94256C9.48174 8.96093 9.32862 8.94256 9.19448 8.88932L6.46214 7.79437C6.25879 7.71521 6.01992 7.71521 5.81902 7.79437L3.08668 8.88932C2.74859 9.02737 2.32841 8.93172 2.14589 8.67777C2.07729 8.57648 2.0534 8.46057 2.07484 8.34844L2.6218 6.0219C2.661 5.85653 2.58689 5.68503 2.42396 5.56724L0.205507 3.91633C0.0768835 3.8188 0.00215912 3.68641 0.00215912 3.54837C0.00215912 3.41032 0.0768835 3.27792 0.205507 3.1804C0.310856 3.09936 0.44928 3.04612 0.600566 3.03151L3.6612 2.68899C3.88293 2.66307 4.07402 2.55848 4.17264 2.40394L5.49072 0.29272C5.60526 0.114154 5.8472 0.000136179 6.11302 0.00390538H6.19448C6.42417 0.0260494 6.62506 0.134414 6.72551 0.29272Z" fill="#FF9C07"/>
<path fill-rule="evenodd" clip-rule="evenodd" d="M6.12969 7.73181C6.00965 7.73181 5.89756 7.76291 5.78976 7.80343L3.06722 8.89508C2.73954 9.02182 2.32549 8.92052 2.14603 8.67788C2.07682 8.57847 2.05048 8.46445 2.07437 8.35184L2.62194 6.03143C2.65807 5.86182 2.58396 5.69268 2.42349 5.573L0.200745 3.92021C-0.0669151 3.71809 -0.0669151 3.38828 0.200745 3.18427C0.306094 3.10512 0.442681 3.05329 0.588454 3.0368L3.66073 2.6891C3.8947 2.66318 4.06497 2.56236 4.17216 2.40405L5.5074 0.268799C5.60785 0.0958868 5.95023 -0.0237853 6.13459 0.00401257C6.12969 0.145829 6.12969 7.63805 6.12969 7.73181Z" fill="#FF9C07"/>
</svg>
